<svg xmlns="http://www.w3.org/2000/svg" viewBox="0 0 1600 640" role="img" aria-labelledby="title desc">
  <title id="title">fix-casting media pipeline</title>
  <desc id="desc">A dedicated Chrome tab sends JPEG frames and per-process PCM audio into ffmpeg, which creates an HLS stream served over the local network to a Chromecast.</desc>
  <defs>
    <linearGradient id="background" x1="0" y1="0" x2="1" y2="1">
      <stop offset="0" stop-color="#111827"/>
      <stop offset="1" stop-color="#1f2937"/>
    </linearGradient>
    <linearGradient id="video" x1="0" y1="0" x2="1" y2="0">
      <stop offset="0" stop-color="#38bdf8"/>
      <stop offset="1" stop-color="#22d3ee"/>
    </linearGradient>
    <linearGradient id="audio" x1="0" y1="0" x2="1" y2="0">
      <stop offset="0" stop-color="#a78bfa"/>
      <stop offset="1" stop-color="#e879f9"/>
    </linearGradient>
    <linearGradient id="stream" x1="0" y1="0" x2="1" y2="0">
      <stop offset="0" stop-color="#fb923c"/>
      <stop offset="1" stop-color="#f43f5e"/>
    </linearGradient>
    <filter id="shadow" x="-20%" y="-20%" width="140%" height="140%">
      <feDropShadow dx="0" dy="12" stdDeviation="16" flood-color="#000" flood-opacity="0.28"/>
    </filter>
    <marker id="arrow-video" viewBox="0 0 10 10" refX="8" refY="5" markerWidth="8" markerHeight="8" orient="auto-start-reverse">
      <path d="M 0 0 L 10 5 L 0 10 z" fill="#22d3ee"/>
    </marker>
    <marker id="arrow-audio" viewBox="0 0 10 10" refX="8" refY="5" markerWidth="8" markerHeight="8" orient="auto-start-reverse">
      <path d="M 0 0 L 10 5 L 0 10 z" fill="#e879f9"/>
    </marker>
    <marker id="arrow-stream" viewBox="0 0 10 10" refX="8" refY="5" markerWidth="8" markerHeight="8" orient="auto-start-reverse">
      <path d="M 0 0 L 10 5 L 0 10 z" fill="#f97316"/>
    </marker>
  </defs>

  <rect width="1600" height="640" rx="32" fill="url(#background)"/>
  <path d="M0 520 C260 450 420 620 700 545 C980 470 1220 620 1600 500 L1600 640 L0 640 Z" fill="#ffffff" opacity="0.025"/>

  <g filter="url(#shadow)">
    <rect x="72" y="150" width="330" height="300" rx="24" fill="#273449" stroke="#475569" stroke-width="3"/>
    <rect x="102" y="184" width="270" height="178" rx="12" fill="#0f172a" stroke="#64748b" stroke-width="3"/>
    <circle cx="124" cy="204" r="6" fill="#fb7185"/>
    <circle cx="145" cy="204" r="6" fill="#fbbf24"/>
    <circle cx="166" cy="204" r="6" fill="#34d399"/>
    <rect x="126" y="238" width="222" height="92" rx="10" fill="#172554"/>
    <path d="M126 308 L187 261 L231 294 L286 250 L348 308 Z" fill="#2563eb" opacity="0.72"/>
    <rect x="195" y="378" width="84" height="10" rx="5" fill="#64748b"/>
    <path d="M151 412 H323" stroke="#64748b" stroke-width="12" stroke-linecap="round"/>
    <text x="237" y="494" fill="#f8fafc" font-family="ui-sans-serif, system-ui, sans-serif" font-size="30" font-weight="700" text-anchor="middle">Dedicated Chrome</text>
    <text x="237" y="530" fill="#94a3b8" font-family="ui-monospace, SFMono-Regular, monospace" font-size="19" text-anchor="middle">isolated profile</text>
  </g>

  <g>
    <path d="M410 238 C500 238 515 238 594 238" fill="none" stroke="url(#video)" stroke-width="10" stroke-linecap="round" marker-end="url(#arrow-video)"/>
    <path d="M410 372 C500 372 515 372 594 372" fill="none" stroke="url(#audio)" stroke-width="10" stroke-linecap="round" marker-end="url(#arrow-audio)"/>
    <text x="502" y="210" fill="#67e8f9" font-family="ui-sans-serif, system-ui, sans-serif" font-size="23" font-weight="650" text-anchor="middle">JPEG frames</text>
    <text x="502" y="410" fill="#f0abfc" font-family="ui-sans-serif, system-ui, sans-serif" font-size="23" font-weight="650" text-anchor="middle">PCM audio</text>
  </g>

  <g filter="url(#shadow)">
    <rect x="612" y="166" width="300" height="270" rx="28" fill="#273449" stroke="#64748b" stroke-width="3"/>
    <rect x="663" y="219" width="198" height="118" rx="18" fill="#0f172a" stroke="#94a3b8" stroke-width="3"/>
    <path d="M696 260 H828 M696 296 H798" stroke="#cbd5e1" stroke-width="12" stroke-linecap="round"/>
    <circle cx="829" cy="296" r="8" fill="#f97316"/>
    <text x="762" y="385" fill="#f8fafc" font-family="ui-sans-serif, system-ui, sans-serif" font-size="32" font-weight="750" text-anchor="middle">ffmpeg</text>
    <text x="762" y="475" fill="#cbd5e1" font-family="ui-sans-serif, system-ui, sans-serif" font-size="24" font-weight="650" text-anchor="middle">H.264 + AAC</text>
    <text x="762" y="507" fill="#94a3b8" font-family="ui-monospace, SFMono-Regular, monospace" font-size="19" text-anchor="middle">paced + muxed</text>
  </g>

  <g>
    <path d="M922 302 H1068" fill="none" stroke="url(#stream)" stroke-width="12" stroke-linecap="round" marker-end="url(#arrow-stream)"/>
    <rect x="946" y="240" width="38" height="48" rx="6" fill="#fb923c" opacity="0.45"/>
    <rect x="993" y="240" width="38" height="48" rx="6" fill="#fb923c" opacity="0.7"/>
    <rect x="1040" y="240" width="38" height="48" rx="6" fill="#fb923c"/>
    <text x="998" y="352" fill="#fdba74" font-family="ui-sans-serif, system-ui, sans-serif" font-size="24" font-weight="650" text-anchor="middle">HLS over LAN</text>
    <text x="998" y="382" fill="#94a3b8" font-family="ui-monospace, SFMono-Regular, monospace" font-size="18" text-anchor="middle">.m3u8 + .ts</text>
  </g>

  <g filter="url(#shadow)">
    <rect x="1090" y="144" width="430" height="294" rx="24" fill="#273449" stroke="#64748b" stroke-width="3"/>
    <rect x="1128" y="182" width="354" height="202" rx="12" fill="#0f172a" stroke="#94a3b8" stroke-width="4"/>
    <rect x="1150" y="204" width="310" height="158" rx="8" fill="#7c2d12"/>
    <circle cx="1305" cy="283" r="58" fill="#f97316" opacity="0.82"/>
    <path d="M1283 245 L1350 283 L1283 321 Z" fill="#fff7ed" opacity="0.92"/>
    <path d="M1270 438 L1246 486 H1364 L1340 438" fill="#475569"/>
    <rect x="1222" y="482" width="166" height="16" rx="8" fill="#64748b"/>
    <text x="1305" y="544" fill="#f8fafc" font-family="ui-sans-serif, system-ui, sans-serif" font-size="30" font-weight="700" text-anchor="middle">Chromecast receiver</text>
    <text x="1305" y="580" fill="#94a3b8" font-family="ui-monospace, SFMono-Regular, monospace" font-size="19" text-anchor="middle">buffered playback</text>
  </g>
</svg>
